<svg width="128" height="128" viewBox="0 0 128 128" fill="none" xmlns="http://www.w3.org/2000/svg">
<g clip-path="url(#clip0_711_654)">
<path d="M32.4731 3.17188H96.0756C112.258 3.17188 125.377 16.2905 125.377 32.4731V96.078C125.377 112.261 112.258 125.379 96.0756 125.379H32.4731C16.2905 125.379 3.17188 112.261 3.17188 96.078V32.4731C3.17188 16.2905 16.2905 3.17188 32.4731 3.17188Z" fill="#101720" stroke="url(#paint0_linear_711_654)" stroke-width="5"/>
<path d="M65.6607 17.7558L67.4904 15.1547L65.6607 13.8677L63.8311 15.1547L65.6607 17.7558ZM37.2426 37.7452L35.413 35.1441L31.7754 37.7028L35.3729 40.3176L37.2426 37.7452ZM94.0789 37.7452H97.259V36.094L95.9085 35.1441L94.0789 37.7452ZM94.0789 79.0566L92.2091 81.629L97.259 85.2994V79.0566H94.0789ZM91.5516 91.0506L93.4147 93.6278L96.9699 91.0576L93.4213 88.4782L91.5516 91.0506ZM34.7167 49.7392L36.5865 47.1669L31.5366 43.4962V49.7392H34.7167ZM63.9022 111.04L62.1052 113.664L63.9517 114.928L65.7654 113.617L63.9022 111.04ZM34.7167 91.0506H31.5366V92.727L32.9197 93.6743L34.7167 91.0506ZM63.8311 15.1547L35.413 35.1441L39.0722 40.3463L67.4904 20.3569L63.8311 15.1547ZM95.9085 35.1441L67.4904 15.1547L63.8311 20.3569L92.2493 40.3463L95.9085 35.1441ZM97.259 79.0566V37.7452H90.8987V79.0566H97.259ZM35.3729 40.3176L92.2091 81.629L95.9486 76.4842L39.1124 35.1728L35.3729 40.3176ZM93.4213 88.4782L36.5865 47.1669L32.847 52.3116L89.6818 93.623L93.4213 88.4782ZM65.7654 113.617L93.4147 93.6278L89.6884 88.4735L62.039 108.463L65.7654 113.617ZM32.9197 93.6743L62.1052 113.664L65.6992 108.416L36.5137 88.4269L32.9197 93.6743ZM31.5366 49.7392V91.0506H37.8969V49.7392H31.5366Z" fill="url(#paint1_linear_711_654)"/>
</g>
<defs>
<linearGradient id="paint0_linear_711_654" x1="-11.0796" y1="-13.0268" x2="133.934" y2="-5.27818" gradientUnits="userSpaceOnUse">
<stop stop-color="#F29AC4"/>
<stop offset="0.13" stop-color="#F2A9CB"/>
<stop offset="0.275" stop-color="#F2BAD5"/>
<stop offset="0.395" stop-color="#CDC6D7"/>
<stop offset="0.52" stop-color="#82D1D9"/>
<stop offset="0.66" stop-color="#09D4D7"/>
<stop offset="0.8" stop-color="#11BBCA"/>
<stop offset="1" stop-color="#17A0BF"/>
</linearGradient>
<linearGradient id="paint1_linear_711_654" x1="29.2328" y1="7.71033" x2="97.0206" y2="10.0153" gradientUnits="userSpaceOnUse">
<stop stop-color="#F29AC4"/>
<stop offset="0.13" stop-color="#F2A9CB"/>
<stop offset="0.275" stop-color="#F2BAD5"/>
<stop offset="0.395" stop-color="#CDC6D7"/>
<stop offset="0.52" stop-color="#82D1D9"/>
<stop offset="0.66" stop-color="#09D4D7"/>
<stop offset="0.8" stop-color="#11BBCA"/>
<stop offset="1" stop-color="#17A0BF"/>
</linearGradient>
<clipPath id="clip0_711_654">
<rect width="128" height="128" fill="white"/>
</clipPath>
</defs>
</svg>
