<svg width="24" height="24" viewBox="0 0 24 24" fill="none" xmlns="http://www.w3.org/2000/svg">
<path d="M12 24C18.6274 24 24 18.6274 24 12C24 5.37258 18.6274 0 12 0C5.37258 0 0 5.37258 0 12C0 18.6274 5.37258 24 12 24Z" fill="#2E3148"/>
<path d="M12.0001 18.9631C15.8456 18.9631 18.9631 15.8456 18.9631 12.0001C18.9631 8.15454 15.8456 5.03711 12.0001 5.03711C8.15454 5.03711 5.03711 8.15454 5.03711 12.0001C5.03711 15.8456 8.15454 18.9631 12.0001 18.9631Z" fill="#1B1E36"/>
<path d="M12.0254 1.53076C10.73 1.53076 9.67969 6.229 9.67969 12.0246C9.67969 17.8202 10.73 22.5185 12.0254 22.5185C13.3207 22.5185 14.371 17.8202 14.371 12.0246C14.371 6.229 13.3207 1.53076 12.0254 1.53076ZM12.1873 21.9263C12.0392 22.1238 11.891 21.9756 11.891 21.9756C11.2945 21.2844 10.9962 20.0003 10.9962 20.0003C9.95281 16.6423 10.2012 9.43243 10.2012 9.43243C10.6915 3.70852 11.5836 2.35636 11.8871 2.05617C11.9181 2.02553 11.9589 2.00681 12.0024 2.0033C12.0458 1.99979 12.0891 2.01171 12.1246 2.03697C12.5651 2.34907 12.9345 3.65428 12.9345 3.65428C14.0253 7.70366 13.9265 11.5061 13.9265 11.5061C14.0253 14.8148 13.3799 18.5184 13.3799 18.5184C12.8831 21.3332 12.1873 21.9263 12.1873 21.9263Z" fill="#6F7390"/>
<path d="M21.1261 6.80247C20.4812 5.6785 15.8837 7.10564 10.8541 9.98967C5.82461 12.8737 2.27683 16.123 2.92128 17.2465C3.56573 18.37 8.16375 16.9433 13.1933 14.0593C18.2228 11.1753 21.7706 7.92596 21.1261 6.80247ZM3.51629 17.0923C3.26938 17.0612 3.32515 16.8583 3.32515 16.8583C3.62803 15.9971 4.59187 15.0993 4.59187 15.0993C6.9864 12.523 13.3643 9.15063 13.3643 9.15063C18.5726 6.7274 20.1904 6.82964 20.6008 6.94263C20.643 6.95439 20.6796 6.98068 20.7042 7.01684C20.7288 7.053 20.7398 7.0967 20.7352 7.1402C20.6859 7.6778 19.7352 8.6474 19.7352 8.6474C16.7677 11.6099 13.42 13.4168 13.42 13.4168C10.5993 15.1496 7.06551 16.432 7.06551 16.432C4.37664 17.401 3.51639 17.0923 3.51639 17.0923H3.51629Z" fill="#6F7390"/>
<path d="M21.1049 17.2841C21.7549 16.1631 18.216 12.8989 13.2041 9.99316C8.19227 7.08743 3.59532 5.64263 2.94597 6.76555C2.29663 7.88846 5.8349 11.1507 10.8497 14.0565C15.8644 16.9622 20.4556 18.4071 21.1049 17.2841ZM3.37663 7.1987C3.28063 6.97108 3.48328 6.91627 3.48328 6.91627C4.3805 6.74683 5.64079 7.13294 5.64079 7.13294C9.06943 7.91371 15.1832 11.7433 15.1832 11.7433C19.8904 15.0372 20.6123 16.488 20.7205 16.8999C20.7315 16.9421 20.7272 16.9869 20.7084 17.0263C20.6896 17.0657 20.6575 17.0972 20.6177 17.1152C20.1269 17.3399 18.8123 17.0051 18.8123 17.0051C14.7604 15.9187 11.5199 13.9281 11.5199 13.9281C8.60834 12.3577 5.7293 9.94142 5.7293 9.94142C3.54165 8.09947 3.3773 7.20119 3.3773 7.20119L3.37663 7.1987Z" fill="#6F7390"/>
<path d="M12.0002 13.2347C12.682 13.2347 13.2347 12.682 13.2347 12.0002C13.2347 11.3184 12.682 10.7656 12.0002 10.7656C11.3184 10.7656 10.7656 11.3184 10.7656 12.0002C10.7656 12.682 11.3184 13.2347 12.0002 13.2347Z" fill="#B7B9C8"/>
<path d="M17.0618 8.00003C17.4572 8.00003 17.7778 7.66839 17.7778 7.25929C17.7778 6.85019 17.4572 6.51855 17.0618 6.51855C16.6663 6.51855 16.3457 6.85019 16.3457 7.25929C16.3457 7.66839 16.6663 8.00003 17.0618 8.00003Z" fill="#B7B9C8"/>
<path d="M5.30786 10.5186C5.70333 10.5186 6.02392 10.1869 6.02392 9.77785C6.02392 9.36875 5.70333 9.03711 5.30786 9.03711C4.91239 9.03711 4.5918 9.36875 4.5918 9.77785C4.5918 10.1869 4.91239 10.5186 5.30786 10.5186Z" fill="#B7B9C8"/>
<path d="M10.5422 19.605C10.9377 19.605 11.2583 19.2734 11.2583 18.8643C11.2583 18.4552 10.9377 18.1235 10.5422 18.1235C10.1468 18.1235 9.82617 18.4552 9.82617 18.8643C9.82617 19.2734 10.1468 19.605 10.5422 19.605Z" fill="#B7B9C8"/>
</svg>
