<svg width="61" height="60" viewBox="0 0 61 60" fill="none" xmlns="http://www.w3.org/2000/svg">
<path d="M57.1401 11.0582C56.5352 8.76877 54.5906 6.47937 51.0903 3.93081C48.2814 1.90057 45.2997 0.734253 42.923 0.734253C42.4476 0.734253 42.0154 0.777484 41.5833 0.863826C40.503 1.07987 39.5523 1.85733 38.9473 3.02365C38.2127 4.40589 38.0399 6.26345 38.5152 7.38653C38.6881 7.73203 38.9041 8.164 39.1634 8.55285C36.8731 9.93509 35.5767 10.3238 35.4038 10.3671C41.3673 12.3541 46.3368 16.501 49.4482 21.9005L49.4915 21.3822C49.6211 19.9135 50.0532 18.3152 50.6581 16.6306C51.2631 16.8034 51.8682 16.8898 52.4731 16.8898C54.072 16.8898 55.4548 16.2417 56.3191 15.0756C57.1834 13.9092 57.5291 12.3973 57.1401 11.0582Z" fill="#5E12A0"/>
<path d="M50.9175 15.3781C54.8499 16.4581 56.4487 13.4343 55.9302 11.4041C55.4116 9.37381 53.5535 7.30032 50.3556 4.96769C47.1578 2.63505 43.9169 1.68478 41.8427 2.11675C39.7683 2.54871 39.1634 5.70204 39.6819 6.91159C39.898 7.38667 40.3733 8.07791 41.0215 8.85537C40.2005 9.41691 39.4227 9.84888 38.7744 10.2377C42.7501 12.0087 46.2072 14.7733 48.7999 18.229C49.1024 17.0627 49.5346 16.0261 49.9236 15.1189C50.226 15.2053 50.5717 15.2917 50.9175 15.3781Z" fill="url(#paint0_radial_4917_14673)"/>
<path d="M28.4033 57.7539C41.7444 57.7539 52.5596 46.9429 52.5596 33.607C52.5596 20.271 41.7444 9.46008 28.4033 9.46008C15.0621 9.46008 4.24707 20.271 4.24707 33.607C4.24707 46.9429 15.0621 57.7539 28.4033 57.7539Z" fill="url(#paint1_radial_4917_14673)"/>
<path opacity="0.6" d="M53.9424 9.46003C50.6581 6.00431 47.8925 5.09715 44.565 4.3628C41.9723 3.75802 42.6637 2.28944 45.8182 2.5917C44.3058 2.0734 42.8797 1.94382 41.8427 2.15974C39.7684 2.5917 39.1633 5.74516 39.682 6.95458C39.898 7.42978 40.3734 8.1209 41.0215 8.89849C39.8549 9.67595 38.861 10.2376 38.0398 10.6696C38.4288 10.8423 38.9041 11.0583 39.4658 11.3607C40.9351 12.1382 42.5341 13.4341 42.5341 13.4341C40.1141 11.3607 40.6326 10.4103 43.9601 8.07767C44.9972 7.34344 46.8986 7.42978 48.6703 8.33695C50.4421 9.24399 52.5163 11.5335 52.5163 11.5335L50.5285 15.3347C50.6581 15.378 50.7878 15.4212 50.9174 15.4643C52.1706 15.8099 53.1645 15.7235 53.9424 15.4212C54.8499 14.8595 57.2266 12.9158 53.9424 9.46003Z" fill="#A98698"/>
<path d="M44.522 6.43624C45.3863 6.78186 46.5098 7.38651 47.8928 8.29367C49.5348 9.37365 50.9609 10.5831 51.8684 11.5335C50.3559 13.5205 49.3619 16.2419 48.757 18.1425C49.0594 18.5745 49.4052 19.0064 49.7077 19.4384C50.0102 18.3584 50.5287 16.7602 51.2201 15.162C51.393 15.2051 51.609 15.2051 51.8252 15.2051C52.3437 15.2051 52.9487 15.1188 53.4241 14.73C53.7697 14.4708 54.1586 13.9957 54.1155 13.1318C54.1155 12.3109 53.4672 11.2743 52.1277 10.0215C51.1769 9.11437 49.8806 8.12086 48.5842 7.21382C44.8678 4.75161 42.2749 4.06049 41.1083 5.22668C40.3304 6.00427 40.4169 6.95454 40.6761 7.64579C39.2932 8.55282 38.1265 9.20084 37.3486 9.6328C37.8673 9.80561 38.3425 10.0215 38.8612 10.2376C40.244 9.45999 42.2318 8.20733 44.522 6.43624ZM52.6894 12.5702C52.8191 12.7861 52.8623 13.0021 52.8623 13.1318C52.8623 13.5205 52.7326 13.6501 52.6462 13.7364C52.4733 13.866 52.1277 13.9524 51.8252 13.9524C52.0844 13.4772 52.3869 13.0022 52.6894 12.5702ZM42.0157 6.13385C42.1453 6.00427 42.4911 5.91793 43.0528 6.00427C42.6207 6.34989 42.1886 6.65228 41.7564 6.95454C41.7132 6.65228 41.7564 6.393 42.0157 6.13385Z" fill="#5E12A0"/>
<path d="M28.4034 8.03467C14.2726 8.03467 2.82104 19.4818 2.82104 33.6071C2.82104 47.7323 14.2726 59.1794 28.4034 59.1794C42.5342 59.1794 53.9858 47.7323 53.9858 33.6071C53.9425 19.4818 42.491 8.03467 28.4034 8.03467ZM28.4034 57.7107C15.0505 57.7107 4.2471 46.9116 4.2471 33.5638C4.2471 20.2162 15.0505 9.41691 28.4034 9.41691C41.7563 9.41691 52.5597 20.2162 52.5597 33.5638C52.5165 46.9116 41.7131 57.7107 28.4034 57.7107Z" fill="#5E12A0"/>
<path opacity="0.6" d="M28.4033 57.7539C41.7444 57.7539 52.5596 46.9429 52.5596 33.607C52.5596 20.271 41.7444 9.46008 28.4033 9.46008C15.0621 9.46008 4.24707 20.271 4.24707 33.607C4.24707 46.9429 15.0621 57.7539 28.4033 57.7539Z" fill="url(#paint2_linear_4917_14673)"/>
<path opacity="0.6" d="M28.2305 54.7732C15.0504 52.6566 6.10522 40.2592 8.26592 27.0842C9.21658 21.2528 12.1551 16.2851 16.3036 12.6998C10.2537 16.1988 5.75958 22.2894 4.54954 29.7193C2.43208 42.8943 11.3773 55.2917 24.5141 57.4082C31.8604 58.6178 38.9474 56.3284 44.1762 51.8359C39.5524 54.5573 33.9346 55.7236 28.2305 54.7732Z" fill="#A98698"/>
<path opacity="0.6" d="M32.2494 9.76243C26.1563 8.76892 20.2361 10.1513 15.3961 13.2181C15.3096 13.3046 15.2232 13.391 15.2232 13.391C17.0814 12.2679 19.8039 11.2744 19.8039 11.2744C12.8033 15.3349 10.6426 19.9569 10.6426 19.9569C13.3651 14.6869 21.3596 10.972 27.6255 10.7128C33.8914 10.4535 37.9967 12.311 43.0094 16.3284C48.0222 20.3887 51.0472 28.6825 50.7447 35.2484C50.4854 41.8143 47.0283 47.1274 47.0283 47.1274C49.405 44.0605 50.831 41.8143 51.7386 39.5249C51.9115 38.8338 52.0842 38.1425 52.1707 37.4082C54.3313 24.2764 45.4293 11.9223 32.2494 9.76243Z" fill="url(#paint3_linear_4917_14673)"/>
<path d="M51.3496 33.3478C51.3496 46.0045 41.0649 56.2851 28.4033 56.2851C15.7418 56.2851 5.41382 46.0045 5.41382 33.3478H51.3496Z" fill="url(#paint4_linear_4917_14673)"/>
<g opacity="0.6">
<path opacity="0.6" d="M49.5345 33.3478C49.5345 45.7021 39.7683 55.8101 27.4956 56.2851C27.7981 56.2851 28.1006 56.2851 28.4031 56.2851C41.0647 56.2851 51.3495 46.0045 51.3495 33.3478H49.5345Z" fill="url(#paint5_linear_4917_14673)"/>
</g>
<g opacity="0.7">
<path d="M8.65481 33.3478H5.41382C5.41382 46.0045 15.6986 56.2851 28.3602 56.2851C28.9219 56.2851 29.4404 56.2851 29.959 56.242C18.0753 55.4212 8.65481 45.486 8.65481 33.3478Z" fill="url(#paint6_linear_4917_14673)"/>
</g>
<path d="M51.3064 33.607C51.3064 30.9719 46.7258 29.4601 40.6327 28.9417C36.2249 28.5962 31.7739 29.0282 26.6747 30.5832C22.2671 31.8791 18.2914 31.6631 15.3961 31.3176C8.95732 30.5832 5.41382 30.4967 5.41382 33.607C5.41382 38.0994 14.575 43.715 28.3169 41.7711C35.2743 40.7776 38.8609 38.7473 42.9662 37.3651C47.4172 35.8531 51.3064 35.9396 51.3064 33.607Z" fill="url(#paint7_linear_4917_14673)"/>
<path d="M35.9223 22.6781C38.0704 22.6781 39.8116 20.9375 39.8116 18.7904C39.8116 16.6432 38.0704 14.9027 35.9223 14.9027C33.7744 14.9027 32.0332 16.6432 32.0332 18.7904C32.0332 20.9375 33.7744 22.6781 35.9223 22.6781Z" fill="white"/>
<path d="M42.2749 25.5723C43.1818 25.5723 43.9171 24.8375 43.9171 23.9309C43.9171 23.0243 43.1818 22.2894 42.2749 22.2894C41.368 22.2894 40.6328 23.0243 40.6328 23.9309C40.6328 24.8375 41.368 25.5723 42.2749 25.5723Z" fill="white"/>
<g opacity="0.6">
<path d="M48.1517 15.7235C48.1084 15.7235 48.0653 15.7235 48.0653 15.7235C47.8059 15.6803 47.6331 15.4211 47.6763 15.1187C48.0653 13.1317 49.7073 11.231 49.7937 11.1447C49.9666 10.9287 50.3124 10.9287 50.4853 11.1015C50.7013 11.2743 50.7013 11.6199 50.5284 11.7926C50.4853 11.8358 48.9727 13.6069 48.6271 15.3348C48.5838 15.5507 48.3677 15.7235 48.1517 15.7235Z" fill="url(#paint8_linear_4917_14673)"/>
</g>
<path d="M42.923 0.777587C45.343 0.777587 48.3247 1.9439 51.0904 3.97402C54.5907 6.52271 56.5352 8.76887 57.1403 11.1015C57.4859 12.4406 57.1835 13.9524 56.3192 15.0755C55.4117 16.2418 54.072 16.8899 52.4732 16.8899C51.9115 16.8899 51.3064 16.8034 50.6583 16.6307C50.2693 17.6242 49.9669 18.6177 49.7507 19.568C52.3867 23.5853 53.9424 28.4233 53.9424 33.6069C53.9424 47.7322 42.4909 59.1793 28.3601 59.1793C14.2293 59.1793 2.82103 47.7322 2.82103 33.6069C2.82103 19.4816 14.2726 8.03452 28.4033 8.03452C31.5147 8.03452 34.4964 8.59606 37.262 9.6328C37.7807 9.37365 38.4288 9.02803 39.1635 8.59606C38.9042 8.20733 38.645 7.8186 38.5153 7.42987C38.0399 6.26355 38.2128 4.44922 38.9473 3.06699C39.5524 1.94391 40.4599 1.16632 41.5835 0.907164C41.9723 0.820695 42.4477 0.777587 42.923 0.777587ZM42.923 0C42.4045 0 41.886 0.0432354 41.4106 0.172812C40.1141 0.4752 38.9906 1.33913 38.256 2.72136C37.4349 4.31965 37.2189 6.39313 37.7807 7.73213C37.8671 7.90495 37.9536 8.12099 38.0832 8.33691C37.7807 8.50972 37.4782 8.68253 37.1757 8.81211C34.3236 7.8186 31.3851 7.30017 28.3601 7.30017C24.8166 7.30017 21.3596 7.99141 18.1186 9.37365C14.964 10.7128 12.1551 12.6133 9.73516 15.0324C7.31519 17.4514 5.41387 20.2592 4.0742 23.4126C2.6914 26.6522 2 30.108 2 33.6501C2 37.1922 2.6914 40.6479 4.0742 43.8877C5.41387 47.0411 7.31519 49.8488 9.73516 52.2679C12.1551 54.6868 14.964 56.5875 18.1186 57.9265C21.3596 59.3089 24.8166 60 28.3601 60C31.9036 60 35.3607 59.3089 38.6017 57.9265C41.7563 56.5875 44.5652 54.6868 46.9851 52.2679C49.4051 49.8488 51.3064 47.0411 52.6461 43.8877C54.0289 40.6479 54.7203 37.1922 54.7203 33.6501C54.7203 28.5961 53.2943 23.715 50.5718 19.4816C50.7014 18.8336 50.9175 18.1858 51.1335 17.5377C51.5657 17.6242 52.0411 17.6673 52.4732 17.6673C54.2882 17.6673 55.8871 16.9331 56.9241 15.5507C57.918 14.2548 58.3071 12.4406 57.8749 10.9287C57.1834 8.42338 55.1957 6.04751 51.5226 3.41249C48.6272 1.20955 45.4726 0 42.923 0Z" fill="white"/>
<path opacity="0.2" d="M26.8043 51.5767C27.4725 51.5767 28.0142 51.0352 28.0142 50.3671C28.0142 49.6992 27.4725 49.1577 26.8043 49.1577C26.136 49.1577 25.5942 49.6992 25.5942 50.3671C25.5942 51.0352 26.136 51.5767 26.8043 51.5767Z" fill="white"/>
<g opacity="0.4">
<path opacity="0.6" d="M26.1129 51.1879C25.6375 50.7127 25.6375 49.9353 26.1129 49.4601C26.1993 49.3737 26.2858 49.3305 26.3722 49.244C26.1993 49.2873 26.0697 49.3736 25.94 49.5033C25.4646 49.9784 25.4646 50.756 25.94 51.2312C26.3289 51.6199 26.934 51.7062 27.4094 51.4471C26.9772 51.6199 26.4586 51.5336 26.1129 51.1879Z" fill="url(#paint9_linear_4917_14673)"/>
</g>
<path opacity="0.3" d="M27.2366 50.0215C27.3798 50.0215 27.4958 49.9055 27.4958 49.7623C27.4958 49.6192 27.3798 49.5031 27.2366 49.5031C27.0934 49.5031 26.9773 49.6192 26.9773 49.7623C26.9773 49.9055 27.0934 50.0215 27.2366 50.0215Z" fill="white"/>
<path opacity="0.2" d="M33.1136 50.9718C33.7818 50.9718 34.3235 50.4303 34.3235 49.7624C34.3235 49.0944 33.7818 48.5529 33.1136 48.5529C32.4453 48.5529 31.9036 49.0944 31.9036 49.7624C31.9036 50.4303 32.4453 50.9718 33.1136 50.9718Z" fill="white"/>
<g opacity="0.4">
<path opacity="0.6" d="M32.4222 50.54C31.9468 50.0648 31.9468 49.2872 32.4222 48.8121C32.5085 48.7256 32.595 48.6824 32.6814 48.5961C32.5085 48.6393 32.3789 48.7256 32.2493 48.8552C31.774 49.3304 31.774 50.108 32.2493 50.5831C32.6382 50.9719 33.2432 51.0583 33.7186 50.7991C33.2864 51.015 32.7679 50.9287 32.4222 50.54Z" fill="url(#paint10_linear_4917_14673)"/>
</g>
<path opacity="0.3" d="M33.5456 49.4167C33.6888 49.4167 33.8049 49.3007 33.8049 49.1576C33.8049 49.0144 33.6888 48.8984 33.5456 48.8984C33.4024 48.8984 33.2864 49.0144 33.2864 49.1576C33.2864 49.3007 33.4024 49.4167 33.5456 49.4167Z" fill="white"/>
<path opacity="0.2" d="M30.0023 53.7798C30.5034 53.7798 30.9097 53.3737 30.9097 52.8726C30.9097 52.3717 30.5034 51.9655 30.0023 51.9655C29.501 51.9655 29.0947 52.3717 29.0947 52.8726C29.0947 53.3737 29.501 53.7798 30.0023 53.7798Z" fill="white"/>
<g opacity="0.4">
<path opacity="0.6" d="M29.4836 53.4775C29.1379 53.1318 29.1379 52.5272 29.4836 52.1816C29.5268 52.1383 29.6132 52.0952 29.6565 52.052C29.5268 52.0952 29.4405 52.1816 29.354 52.2679C29.0083 52.6135 29.0083 53.2183 29.354 53.5638C29.6565 53.8662 30.0886 53.9094 30.4775 53.6934C30.1319 53.7799 29.7428 53.7366 29.4836 53.4775Z" fill="url(#paint11_linear_4917_14673)"/>
</g>
<path opacity="0.3" d="M30.3047 52.5704C30.4001 52.5704 30.4775 52.493 30.4775 52.3975C30.4775 52.3021 30.4001 52.2247 30.3047 52.2247C30.2092 52.2247 30.1318 52.3021 30.1318 52.3975C30.1318 52.493 30.2092 52.5704 30.3047 52.5704Z" fill="white"/>
<path opacity="0.2" d="M35.5767 53.1317C36.0779 53.1317 36.4841 52.7256 36.4841 52.2247C36.4841 51.7236 36.0779 51.3175 35.5767 51.3175C35.0755 51.3175 34.6692 51.7236 34.6692 52.2247C34.6692 52.7256 35.0755 53.1317 35.5767 53.1317Z" fill="white"/>
<g opacity="0.4">
<path opacity="0.6" d="M35.0583 52.8294C34.7127 52.4838 34.7127 51.879 35.0583 51.5335C35.1015 51.4903 35.1879 51.447 35.2312 51.4039C35.1015 51.447 35.0152 51.5335 34.9287 51.6199C34.583 51.9655 34.583 52.5701 34.9287 52.9157C35.2312 53.2181 35.6633 53.2614 36.0522 53.0453C35.7066 53.1318 35.3177 53.0886 35.0583 52.8294Z" fill="url(#paint12_linear_4917_14673)"/>
</g>
<path opacity="0.3" d="M35.8794 51.9223C35.9748 51.9223 36.0522 51.8449 36.0522 51.7496C36.0522 51.6541 35.9748 51.5768 35.8794 51.5768C35.7839 51.5768 35.7065 51.6541 35.7065 51.7496C35.7065 51.8449 35.7839 51.9223 35.8794 51.9223Z" fill="white"/>
<path opacity="0.2" d="M21.6619 51.1447C22.7598 51.1447 23.6497 50.2551 23.6497 49.1577C23.6497 48.0603 22.7598 47.1707 21.6619 47.1707C20.5641 47.1707 19.6741 48.0603 19.6741 49.1577C19.6741 50.2551 20.5641 51.1447 21.6619 51.1447Z" fill="white"/>
<g opacity="0.4">
<path opacity="0.6" d="M20.5385 50.4537C19.7606 49.6761 19.7606 48.4235 20.5385 47.6459C20.6681 47.5163 20.7977 47.43 20.9706 47.3435C20.7114 47.43 20.4952 47.6027 20.2792 47.7755C19.5013 48.5531 19.5013 49.8057 20.2792 50.5833C20.9274 51.2312 21.9213 51.3608 22.6992 50.8857C21.9645 51.1881 21.1003 51.0153 20.5385 50.4537Z" fill="url(#paint13_linear_4917_14673)"/>
</g>
<path opacity="0.3" d="M22.3533 48.5962C22.592 48.5962 22.7854 48.4027 22.7854 48.1643C22.7854 47.9256 22.592 47.7323 22.3533 47.7323C22.1147 47.7323 21.9211 47.9256 21.9211 48.1643C21.9211 48.4027 22.1147 48.5962 22.3533 48.5962Z" fill="white"/>
<path opacity="0.2" d="M39.4229 46.2636C40.5207 46.2636 41.4107 45.374 41.4107 44.2766C41.4107 43.1791 40.5207 42.2896 39.4229 42.2896C38.325 42.2896 37.4351 43.1791 37.4351 44.2766C37.4351 45.374 38.325 46.2636 39.4229 46.2636Z" fill="white"/>
<g opacity="0.4">
<path opacity="0.6" d="M38.2559 45.5726C37.4781 44.795 37.4781 43.5424 38.2559 42.7648C38.3857 42.6352 38.5153 42.5489 38.6881 42.4624C38.4288 42.5489 38.2128 42.7216 37.9967 42.8944C37.2189 43.672 37.2189 44.9246 37.9967 45.7022C38.6449 46.3501 39.6388 46.4797 40.4166 46.0046C39.682 46.307 38.8609 46.1342 38.2559 45.5726Z" fill="url(#paint14_linear_4917_14673)"/>
</g>
<path opacity="0.3" d="M40.1143 43.7151C40.3529 43.7151 40.5464 43.5218 40.5464 43.2833C40.5464 43.0447 40.3529 42.8513 40.1143 42.8513C39.8756 42.8513 39.6821 43.0447 39.6821 43.2833C39.6821 43.5218 39.8756 43.7151 40.1143 43.7151Z" fill="white"/>
<defs>
<radialGradient id="paint0_radial_4917_14673" cx="0" cy="0" r="1" gradientUnits="userSpaceOnUse" gradientTransform="translate(55.142 8.70564) scale(19.3139 19.3064)">
<stop stop-color="#FFEAFF" stop-opacity="0.6"/>
<stop offset="0.6807" stop-color="#A087C9"/>
<stop offset="1" stop-color="#10002F"/>
</radialGradient>
<radialGradient id="paint1_radial_4917_14673" cx="0" cy="0" r="1" gradientUnits="userSpaceOnUse" gradientTransform="translate(44.3967 16.9395) scale(47.2543 47.2359)">
<stop stop-color="#FFEAFF" stop-opacity="0.6"/>
<stop offset="0.6807" stop-color="#A087C9"/>
<stop offset="1" stop-color="#10002F"/>
</radialGradient>
<linearGradient id="paint2_linear_4917_14673" x1="24.5335" y1="57.3885" x2="32.254" y2="9.73891" gradientUnits="userSpaceOnUse">
<stop stop-color="#81FFFF"/>
<stop offset="0.6202" stop-color="white" stop-opacity="0"/>
</linearGradient>
<linearGradient id="paint3_linear_4917_14673" x1="45.4273" y1="17.1879" x2="25.4594" y2="35.5161" gradientUnits="userSpaceOnUse">
<stop offset="0.2888" stop-color="white"/>
<stop offset="0.7796" stop-color="white" stop-opacity="0"/>
</linearGradient>
<linearGradient id="paint4_linear_4917_14673" x1="5.43322" y1="44.8261" x2="51.3385" y2="44.8261" gradientUnits="userSpaceOnUse">
<stop stop-color="#0002E9"/>
<stop offset="0.9952" stop-color="#FF00C7"/>
</linearGradient>
<linearGradient id="paint5_linear_4917_14673" x1="53.5113" y1="35.3836" x2="28.5345" y2="58.9973" gradientUnits="userSpaceOnUse">
<stop offset="0.2888" stop-color="white"/>
<stop offset="0.7796" stop-color="white" stop-opacity="0"/>
</linearGradient>
<linearGradient id="paint6_linear_4917_14673" x1="5.43322" y1="44.8261" x2="29.9923" y2="44.8261" gradientUnits="userSpaceOnUse">
<stop stop-color="#000292"/>
<stop offset="0.9952" stop-color="#7D00C7"/>
</linearGradient>
<linearGradient id="paint7_linear_4917_14673" x1="5.46405" y1="35.4924" x2="51.3076" y2="35.4924" gradientUnits="userSpaceOnUse">
<stop stop-color="#000292"/>
<stop offset="0.9952" stop-color="#BE00C7"/>
</linearGradient>
<linearGradient id="paint8_linear_4917_14673" x1="50.5553" y1="10.9142" x2="47.2623" y2="16.2673" gradientUnits="userSpaceOnUse">
<stop offset="0.2888" stop-color="white"/>
<stop offset="0.7796" stop-color="white" stop-opacity="0"/>
</linearGradient>
<linearGradient id="paint9_linear_4917_14673" x1="25.5824" y1="50.4272" x2="27.4106" y2="50.4272" gradientUnits="userSpaceOnUse">
<stop offset="0.2888" stop-color="white"/>
<stop offset="0.7796" stop-color="white" stop-opacity="0"/>
</linearGradient>
<linearGradient id="paint10_linear_4917_14673" x1="31.8871" y1="49.8142" x2="33.7155" y2="49.8142" gradientUnits="userSpaceOnUse">
<stop offset="0.2888" stop-color="white"/>
<stop offset="0.7796" stop-color="white" stop-opacity="0"/>
</linearGradient>
<linearGradient id="paint11_linear_4917_14673" x1="29.089" y1="52.906" x2="30.4616" y2="52.906" gradientUnits="userSpaceOnUse">
<stop offset="0.2888" stop-color="white"/>
<stop offset="0.7796" stop-color="white" stop-opacity="0"/>
</linearGradient>
<linearGradient id="paint12_linear_4917_14673" x1="34.645" y1="52.2563" x2="36.0177" y2="52.2563" gradientUnits="userSpaceOnUse">
<stop offset="0.2888" stop-color="white"/>
<stop offset="0.7796" stop-color="white" stop-opacity="0"/>
</linearGradient>
<linearGradient id="paint13_linear_4917_14673" x1="19.676" y1="49.2315" x2="22.6618" y2="49.2315" gradientUnits="userSpaceOnUse">
<stop offset="0.2888" stop-color="white"/>
<stop offset="0.7796" stop-color="white" stop-opacity="0"/>
</linearGradient>
<linearGradient id="paint14_linear_4917_14673" x1="37.41" y1="44.3489" x2="40.3958" y2="44.3489" gradientUnits="userSpaceOnUse">
<stop offset="0.2888" stop-color="white"/>
<stop offset="0.7796" stop-color="white" stop-opacity="0"/>
</linearGradient>
</defs>
</svg>
